<svg width="256" height="256" viewBox="0 0 256 256" fill="none" xmlns="http://www.w3.org/2000/svg">
<path fill-rule="evenodd" clip-rule="evenodd" d="M203.329 51.1324L219.854 67.4119C224.201 71.694 224.201 78.7078 219.854 82.9899L206.551 96.0947C210.224 102.85 213.015 110.122 214.814 117.782H232.052C238.198 117.782 243.238 122.747 243.238 128.801V151.818C243.238 157.872 238.198 162.837 232.052 162.837H213.24C210.936 170.33 207.638 177.418 203.497 183.915L215.695 195.931C220.042 200.213 220.042 207.227 215.695 211.509L199.169 227.788C194.822 232.071 187.702 232.071 183.355 227.788L170.389 214.997V186.481C184.498 174.668 193.454 157.06 193.454 137.402C193.454 101.853 164.187 73.0229 128.1 73.0229C92.0131 73.0229 62.7462 101.853 62.7462 137.402C62.7462 155.195 70.0911 171.327 81.9515 182.974L80.8835 211.657L68.6858 223.672C64.3389 227.955 57.2189 227.955 52.8719 223.672L36.3461 207.393C31.9991 203.111 31.9991 196.097 36.3461 191.815L49.6492 178.71C45.9768 171.955 43.1663 164.682 41.3863 157.023H24.1484C18.0402 157.004 13 152.039 13 145.985V122.987C13 116.933 18.0402 111.968 24.1859 111.968H42.9976C45.3023 104.474 48.5999 97.3867 52.7408 90.8897L40.5431 78.8739C36.1962 74.5918 36.1962 67.578 40.5431 63.2959L57.069 47.0164C61.4159 42.7343 68.5359 42.7343 72.8828 47.0164L86.186 60.1212C93.0436 56.5035 100.426 53.7349 108.202 51.9815V35.0006C108.202 28.965 113.242 24 119.388 24H142.752C148.898 24 153.938 28.965 153.938 35.0191V53.5319C161.545 55.8021 168.74 59.0506 175.336 63.1297L187.533 51.114C191.862 46.8503 198.982 46.8503 203.329 51.1324Z" fill="#0B4890"/>
<g clip-path="url(#clip0_101_2)">
<path d="M102.115 146.336L99.5278 150.716H125.411L127.999 155.096L130.586 159.477H84L89.175 150.716L91.7653 146.333L94.3528 141.953L102.115 128.81L104.706 124.43L109.881 115.667L112.468 111.286L115.058 106.906L120.233 98.1432L122.821 93.7631L125.408 89.3802L127.999 85L130.586 89.3802L133.176 93.7631L130.586 98.1432L127.999 102.523L125.411 106.906L122.821 111.286L120.233 115.667L117.646 120.05L115.058 124.43L112.471 128.81L109.881 133.19L104.706 141.953L102.115 146.336Z" fill="url(#paint0_linear_101_2)"/>
<path d="M172 159.477H151.292L156.469 168.24L159.06 172.62V172.623L161.647 177H151.292L148.704 172.623L146.114 168.24L143.526 163.857L140.936 159.477L135.761 150.716L133.174 146.336L135.764 141.953L138.351 137.573L140.939 141.953L146.114 150.716H156.469L151.292 141.953L148.704 137.573V137.57L146.114 133.19L140.939 124.43L138.351 120.047L135.761 124.43L130.586 133.19L127.996 137.573L125.408 141.953H115.056L117.646 137.57L120.233 133.19L122.821 128.81L127.996 120.047L130.586 115.667L133.174 111.284L135.761 106.906L138.351 102.521L140.939 106.906L143.526 111.284L146.117 115.667L148.704 120.047L151.292 124.43L153.882 128.807L156.469 133.19L159.06 137.57L161.647 141.953L164.232 146.333L166.822 150.716L172 159.477Z" fill="url(#paint1_linear_101_2)"/>
</g>
<defs>
<linearGradient id="paint0_linear_101_2" x1="108.588" y1="85" x2="108.588" y2="159.477" gradientUnits="userSpaceOnUse">
<stop stop-color="#0B4890"/>
<stop offset="0.442708" stop-color="#03C3FF"/>
<stop offset="1" stop-color="#07A6C9"/>
</linearGradient>
<linearGradient id="paint1_linear_101_2" x1="143.528" y1="102.521" x2="143.528" y2="177" gradientUnits="userSpaceOnUse">
<stop stop-color="#0B4890"/>
<stop offset="0.442708" stop-color="#03C3FF"/>
<stop offset="1" stop-color="#07A6C9"/>
</linearGradient>
<clipPath id="clip0_101_2">
<rect width="88" height="92" fill="white" transform="translate(84 85)"/>
</clipPath>
</defs>
</svg>
